<svg width="24" height="24" viewBox="0 0 24 24" fill="none" xmlns="http://www.w3.org/2000/svg">
<path d="M22.5 11.25C22.5015 10.499 22.315 9.75954 21.9576 9.09905C21.6001 8.43856 21.083 7.87804 20.4535 7.46858C19.8239 7.05911 19.1019 6.81373 18.3532 6.75479C17.6045 6.69585 16.8529 6.82522 16.167 7.13113C15.4812 7.43704 14.8827 7.90974 14.4263 8.50616C13.9699 9.10257 13.67 9.80374 13.554 10.5457C13.438 11.2877 13.5095 12.047 13.7621 12.7542C14.0147 13.4615 14.4402 14.0943 15 14.595V21.75L18 20.337L21 21.75V14.595C21.4715 14.1745 21.8489 13.6592 22.1074 13.0828C22.3659 12.5063 22.4997 11.8818 22.5 11.25ZM19.5 19.386L18 18.6795L16.5 19.386V15.4875C17.4694 15.8376 18.5306 15.8376 19.5 15.4875V19.386ZM18 14.25C17.4066 14.25 16.8266 14.0741 16.3333 13.7444C15.8399 13.4148 15.4554 12.9462 15.2284 12.3981C15.0013 11.8499 14.9419 11.2467 15.0576 10.6647C15.1734 10.0828 15.4591 9.54824 15.8787 9.12868C16.2982 8.70912 16.8328 8.4234 17.4147 8.30764C17.9967 8.19189 18.5999 8.2513 19.148 8.47836C19.6962 8.70542 20.1648 9.08994 20.4944 9.58329C20.824 10.0766 21 10.6567 21 11.25C20.999 12.0453 20.6826 12.8078 20.1202 13.3702C19.5578 13.9326 18.7953 14.249 18 14.25Z" fill="#403D39"/>
<path d="M10.5 1.5C9.30695 1.50139 8.16317 1.97594 7.31955 2.81955C6.47594 3.66317 6.00139 4.80695 6 6V10.5H4.5C4.1023 10.5004 3.721 10.6586 3.43978 10.9398C3.15856 11.221 3.0004 11.6023 3 12V21C3.0004 21.3977 3.15856 21.779 3.43978 22.0602C3.721 22.3414 4.1023 22.4996 4.5 22.5H12.75V21H4.5V12H11.25V10.5H7.5V6C7.49925 5.25603 7.77497 4.53832 8.27362 3.9862C8.77228 3.43408 9.4583 3.08694 10.1985 3.01217C10.9387 2.93741 11.6803 3.14034 12.2793 3.58159C12.8783 4.02283 13.292 4.67091 13.44 5.4L14.91 5.1C14.7003 4.08467 14.1474 3.17251 13.3443 2.51689C12.5411 1.86127 11.5368 1.50218 10.5 1.5Z" fill="#403D39"/>
</svg>
